<?xml version="1.0" encoding="utf-8"?>
<!-- Generator: Adobe Illustrator 19.0.0, SVG Export Plug-In . SVG Version: 6.00 Build 0)  -->
<svg version="1.1" id="Layer_1" xmlns="http://www.w3.org/2000/svg" xmlns:xlink="http://www.w3.org/1999/xlink" x="0px" y="0px"
	 viewBox="0 0 96 96" style="enable-background:new 0 0 96 96;" xml:space="preserve">
<style type="text/css">
	.st0{fill:#D79336;}
</style>
<g id="XMLID_2_">
	<path id="XMLID_7_" class="st0" d="M48,22.3l27.5,11V37h-3.7c0,0.5-0.2,0.9-0.6,1.3s-0.9,0.5-1.4,0.5H26.1c-0.5,0-1-0.2-1.4-0.5
		s-0.6-0.8-0.6-1.3h-3.7v-3.7L48,22.3z M27.8,40.7h7.3v22h3.7v-22h7.3v22h3.7v-22h7.3v22h3.7v-22h7.3v22h1.7c0.5,0,1,0.2,1.4,0.5
		s0.6,0.8,0.6,1.3v1.8H24.2v-1.8c0-0.5,0.2-0.9,0.6-1.3s0.9-0.5,1.4-0.5h1.7V40.7z M73.5,68.2c0.5,0,1,0.2,1.4,0.5
		c0.4,0.4,0.6,0.8,0.6,1.3v3.7h-55V70c0-0.5,0.2-0.9,0.6-1.3s0.9-0.5,1.4-0.5H73.5z"/>
</g>
</svg>
